<svg width="15px" height="16px" viewBox="0 0 15 16" xmlns="http://www.w3.org/2000/svg">
	<path d="M12.8480768,1.14939149 L7.5,6.49915265 L2.15192323,1.15107588 C1.65984773,0.658581932 0.861859117,0.658581932 0.369370463,1.15107588 C-0.123123488,1.64356454 -0.123123488,2.44155315 0.369370463,2.93362865 L5.71744723,8.28170542 L0.369370463,13.6297822 C-0.123123488,14.1218577 -0.123123488,14.9198463 0.369370463,15.412335 C0.861859117,15.9048289 1.65984773,15.9048289 2.15192323,15.412335 L7.5,10.0642582 L12.8480768,15.412335 C13.3401523,15.9048289 14.1381409,15.9048289 14.6306295,15.412335 C15.1231235,14.9198463 15.1231235,14.1218577 14.6306295,13.6297822 L9.28255277,8.28170542 L14.6306295,2.93362865 C15.1231235,2.44155315 15.1231235,1.64356454 14.6306295,1.15107588 C14.1381409,0.656902837 13.3401523,0.656902837 12.8480768,1.14939149 Z" fill="#59b9df" fill-rule="evenodd"></path>
</svg>