<?xml version="1.0" encoding="UTF-8"?>
<svg width="25px" height="32px" viewBox="0 0 25 32" version="1.1" xmlns="http://www.w3.org/2000/svg" xmlns:xlink="http://www.w3.org/1999/xlink">
    <!-- Generator: Sketch 45.1 (43504) - http://www.bohemiancoding.com/sketch -->
    <title>Combined Shape</title>
    <desc>Created with Sketch.</desc>
    <defs>
        <path d="M22.6967998,7.32542152 C24.3984804,10.6982591 24.4595329,14.4720692 22.7273287,17.62874 C21.3350446,20.1975523 15.9820696,26.8801053 13.6001328,29.8193718 C12.9813398,30.5623341 11.8679233,30.5623341 11.2796592,29.8193718 C8.8964796,26.8801053 3.48204135,20.1975523 2.18298853,17.62874 C-0.570640071,12.2143018 1.62566252,5.06600569 7.28802875,2.22037974 C12.950811,-0.625651806 19.8511791,1.6626445 22.6967998,7.32542152 Z M12.4561874,18.4942233 C15.7659081,18.4942233 18.458895,15.8033008 18.4279553,12.5220447 C18.4279553,9.24120447 15.7659081,6.55028196 12.4561874,6.55028196 C9.14440758,6.55028196 6.48401392,9.2123292 6.48401392,12.5220447 C6.48401392,15.8033008 9.14606116,18.4942233 12.4561874,18.4942233 Z" id="path-1"></path>
    </defs>
    <g id="Page-1" stroke="none" stroke-width="1" fill="none" fill-rule="evenodd">
        <g id="Combined-Shape">
            <use fill="#FFBA00" fill-rule="evenodd" xlink:href="#path-1"></use>
            <path stroke="#000000" stroke-width="1" d="M23.1435634,7.10091689 L23.1432025,7.10020023 C24.9356768,10.6529966 24.961335,14.5969565 23.1669141,17.8669933 C22.0243431,19.9750764 18.521066,24.5411824 13.9843304,30.1393595 C13.1643007,31.1239396 11.6748388,31.1239396 10.8912807,30.134272 C5.7956816,23.8496749 2.79508531,19.9470918 1.7373134,17.8553977 C-1.17739493,12.1242296 1.22288822,4.70883167 7.06349841,1.7736291 C12.972193,-1.19599438 20.1735291,1.19055726 23.1435634,7.10091689 Z M12.4561874,17.9942233 C15.4897728,17.9942233 17.9562786,15.5281883 17.9279553,12.5220447 C17.9279553,9.50698698 15.4794377,7.05028196 12.4561874,7.05028196 C9.42120126,7.05028196 6.98401392,9.48782017 6.98401392,12.5220447 C6.98401392,15.537517 9.43253021,17.9942233 12.4561874,17.9942233 Z"></path>
        </g>
    </g>
</svg>